<?xml version="1.0" encoding="UTF-8" standalone="no"?>
<svg
   xmlns:dc="http://purl.org/dc/elements/1.1/"
   xmlns:cc="http://creativecommons.org/ns#"
   xmlns:rdf="http://www.w3.org/1999/02/22-rdf-syntax-ns#"
   xmlns:svg="http://www.w3.org/2000/svg"
   xmlns="http://www.w3.org/2000/svg"
   xmlns:sodipodi="http://sodipodi.sourceforge.net/DTD/sodipodi-0.dtd"
   xmlns:inkscape="http://www.inkscape.org/namespaces/inkscape"
   version="1.1"
   id="svg2"
   xml:space="preserve"
   width="2633.0933"
   height="714.94666"
   viewBox="0 0 2633.0933 714.94666"
   sodipodi:docname="Aportar.eps"><metadata
     id="metadata8"><rdf:RDF><cc:Work
         rdf:about=""><dc:format>image/svg+xml</dc:format><dc:type
           rdf:resource="http://purl.org/dc/dcmitype/StillImage" /></cc:Work></rdf:RDF></metadata><defs
     id="defs6" /><sodipodi:namedview
     pagecolor="#ffffff"
     bordercolor="#666666"
     borderopacity="1"
     objecttolerance="10"
     gridtolerance="10"
     guidetolerance="10"
     inkscape:pageopacity="0"
     inkscape:pageshadow="2"
     inkscape:window-width="640"
     inkscape:window-height="480"
     id="namedview4" /><g
     id="g10"
     inkscape:groupmode="layer"
     inkscape:label="ink_ext_XXXXXX"
     transform="matrix(1.3333333,0,0,-1.3333333,0,714.94667)"><g
       id="g12"
       transform="scale(0.1)"><path
         d="m 13445.8,4519.38 c 0,0 0,0 0,-0.01 0,0 0,0.01 0,0.01 z m -3437.7,-2722.7 c 0,0 0,-0.01 0,-0.03 0,0.01 0,0.02 0,0.03 z m 18.7,-254.9 c -0.1,-0.18 -0.1,-0.35 -0.1,-0.52 0,0.17 0,0.34 0.1,0.52 z M 4106.95,75 h -177.47 c -149.05,0 -272.3,17.9805 -376.79,54.969 -133.05,47.113 -240.18,121.801 -318.47,222.019 -1.3,1.66 -2.58,3.332 -3.85,5.012 -79.78,105.52 -125.92,231.02 -133.48,363.031 -5.39,89.188 -0.74,178.84 13.81,266.969 h -149.31 c -199.77,0.07 -360.25,28.24 -490.74,86.1 -162.34,72.01 -287.35,188.7 -361.57,337.48 -49.45,99.25 -80.11,211.84 -91.47,335.6 h -188.53 l -180.19,-433.76 c -3.13,-7.55 -6.51,-15.01 -10.1,-22.35 C 1545.93,1100.29 1364.01,987 1152.17,987 H 890.891 c -81.321,0.148 -162.118,8.75 -240.914,25.59 -98.528,19.96 -191.293,57.68 -275.801,112.16 -0.602,0.38 -1.203,0.77 -1.797,1.16 -94.457,61.6 -172.75,146.61 -226.402,245.82 -45.723,84.36 -92.934,223.72 -59.9457,410.28 19.1797,109.28 69.0317,248.65 161.5627,451.39 77.34,169.34 172.179,363.26 281.937,576.5 108.985,211.66 229.61,436.19 358.559,667.42 127.76,229.18 252.76,449.26 371.48,654.05 119.13,205.65 228.18,389.3 324.05,545.74 101.75,166.03 178.14,282.52 233.49,356.05 52.99,70.84 138.65,170.43 270.36,217.93 69.16,24.93 148.91,36.04 258.62,36.04 v 0 h 468.33 c 159.01,-0.05 297.21,-36.81 410.91,-109.25 v 0 c 106.39,-67.63 193.81,-162.26 252.79,-273.67 0.54,-1.03 1.08,-2.06 1.62,-3.08 47.75,-92.14 80.47,-190.76 97.25,-293.16 13.64,-79.58 23.11,-160.76 28.13,-241.33 29.38,-416.61 54.8,-775.84 76.28,-1077.64 39.11,154.92 74.42,296.34 105.32,421.87 39.74,161.43 68.43,273.68 87.53,342.36 27.55,120.96 69.11,244.23 176.29,335.25 115.63,98.47 249.68,109.89 340.41,109.89 h 192.26 c 0.18,0 0.36,0 0.54,0 218.49,0 397.87,-45.01 535.53,-134.1 25.35,15.25 51.16,29.44 77.41,42.57 0.04,0.02 0.09,0.05 0.14,0.07 186.97,93.4 403.07,140.76 642.32,140.76 563.54,0.05 845.96,-255.41 983.64,-469.72 48.45,-75.41 87,-158.54 115.74,-249.88 29.52,35.25 60.27,69.61 92.22,103.03 176.68,185.18 394.34,335.66 646.67,446.97 255.11,112.54 555.5,169.6 892.81,169.6 549.15,0 940.28,-158.66 1162.52,-471.56 26.79,-37.73 51.15,-77.06 73.09,-117.97 7.6,30.47 15.31,61.42 23.12,92.78 80.96,329.92 320.24,447.45 517.14,447.45 h 192.3 c 136.7,0 252.2,-16.42 353.3,-50.22 69.3,-23.19 132,-53.4 187.8,-90.33 25.9,16.14 52.4,31.47 79.4,45.96 0.5,0.26 1,0.53 1.4,0.79 169.8,90.44 361.2,139.9 553.5,143.04 2.4,0.04 4.9,0.05 7.3,0.06 112,-0.19 221.9,-20.76 326.4,-61.1 77.9,-29.76 151.5,-71.68 217.2,-123.37 46.9,31.99 97.5,58.53 150.4,78.69 25.4,9.95 51.5,18.55 78.6,25.84 5.6,10.37 11.3,20.94 17.1,31.72 44.4,82.96 89.3,165.05 133.4,243.81 43.1,78.33 90.8,155.3 141.7,228.8 0.8,1.09 1.6,2.18 2.4,3.27 116.3,164.37 256.6,247.71 416.8,247.71 h 142.9 c 422.7,0 581.1,-256.95 629.6,-367.42 48,-109.36 71.3,-228.99 69.8,-357.25 h 40.5 c 198.6,-0.09 313.4,-101.62 364.2,-162.12 25.4,-30.14 46.2,-62.86 62.4,-97.57 13.2,9.07 26.6,17.95 40.2,26.67 140.1,89.38 306.1,159.88 493.4,209.72 181.1,48.17 385.1,72.6 606.2,72.6 487.1,0 830.4,-116.92 1049.4,-357.43 67.7,-74.35 137.6,-175.16 187.2,-307.22 13.7,54.85 27.8,111.19 42.2,169.03 81.2,329.04 320.1,446.32 516.8,446.32 h 192.3 c 136.7,0 252.2,-16.42 353.3,-50.22 69.3,-23.19 132.1,-53.4 187.8,-90.34 26,16.14 52.4,31.47 79.4,45.96 0.5,0.27 1,0.54 1.5,0.8 169.7,90.44 361.1,139.9 553.5,143.04 2.4,0.04 4.8,0.05 7.2,0.06 112.2,-0.19 222.2,-20.8 326.8,-61.26 113,-43.24 217,-112.07 301,-199.12 92.8,-96.45 158,-216.06 193.8,-355.73 32.6,-127.77 35.3,-270.63 8.2,-425.05 -22,-125.92 -62.6,-248.13 -120.8,-362.62 v 0 c -57.7,-114.11 -132.4,-218.21 -222,-309.38 -93.9,-95.74 -203.9,-172.36 -326.6,-227.47 -128.1,-57.66 -264.2,-86.88 -404.6,-86.88 -1.1,0 -2.2,0 -3.3,0 -29,0.02 -60,1.15 -92,3.36 -42.3,2.75 -84.6,8.68 -125.9,17.62 -49.5,10.33 -97.5,26.74 -143,48.9 -22.7,-92.81 -48.8,-195.58 -77.9,-306.42 -34.4,-130.7 -67.7,-259.24 -99.2,-382.07 -31,-121.33 -58.5,-230.35 -81.5,-324.1 -27.3,-111.14 -35,-148.45 -36.7,-157.82 -22.7,-140.76 -103.5,-264.9 -223.2,-342.7 -86.5,-57.04 -186.8,-88.09 -290.4,-89.871 -2.3,-0.039 -4.6,-0.059 -6.9,-0.059 h -177.4 c -0.3,0 -0.6,0 -0.9,0 -148.7,0 -271.8,18.01 -376.2,55.07 -115.4,40.92 -211.3,102.63 -285.8,183.76 -83.5,-79.58 -178.9,-144.09 -284.7,-192.28 -136.7,-63.609 -291.9,-95.839 -461.2,-95.839 -243.5,0.07 -438,64.839 -579.7,192.749 -4.4,-2.66 -8.9,-5.3 -13.3,-7.93 -203.5,-122.38 -446.3,-184.569 -721.5,-184.819 -127.8,-1.031 -254.4,15.187 -377.4,48.059 -1.2,0.32 -2.4,0.628 -3.5,0.96 -147.3,40.78 -274.1,111.51 -377,210.24 -26.1,24.99 -50.3,51.6 -72.6,79.75 -24.8,-27.51 -51.1,-53.79 -78.9,-78.81 -192.5,-172.7 -462.6,-260.199 -802.9,-260.199 -357.9,0.019 -627.1,102.749 -800.2,305.369 -174.9,204.82 -232.3,485.64 -170.6,834.67 9.8,56.43 24.2,122.68 43.8,201.71 17.4,69.61 41.1,160.52 70.6,270.85 7.9,29.47 16.2,60.77 25.1,93.9 -24.2,-13.23 -49.1,-25.57 -74.5,-36.98 v 0 c -128.2,-57.79 -264.5,-87.07 -405.1,-87.07 -1.1,0 -2.2,0 -3.3,0 -28.9,0.02 -59.7,1.14 -91.7,3.34 -42.3,2.74 -84.8,8.68 -126.2,17.66 -49.5,10.32 -97.5,26.73 -142.9,48.88 -22.7,-92.8 -48.8,-195.58 -77.9,-306.42 -34.7,-132.12 -68.1,-260.68 -99.2,-382.07 -31.1,-121.63 -58.6,-230.65 -81.5,-324.1 -27.5,-111.66 -35,-148.82 -36.8,-157.95 -22.7,-140.55 -103.4,-264.56 -222.8,-342.34 -86.5,-57.19 -186.9,-88.32 -290.7,-90.101 -2.3,-0.039 -4.6,-0.059 -6.9,-0.059 h -177.5 c -149.03,0 -272.28,17.98 -376.77,54.97 -133.13,47.12 -240.33,121.9 -318.61,222.25 -71.69,91.64 -116.19,199.11 -132.32,319.65 -95.08,-104.44 -201.26,-198.56 -316.77,-280.69 v 0 C 8817.88,1190.9 8636.63,1101.03 8436.19,1036.07 8235,970.801 8007.24,937.711 7759.22,937.711 c -288.24,0.039 -522.33,43.598 -715.68,133.199 -209.97,97.29 -372.49,237.43 -483.07,416.51 -37.84,61.24 -69.8,126.01 -95.82,194.06 -49.46,-67.47 -101.61,-130.76 -156.28,-189.6 -163.98,-176.52 -348.33,-313.57 -547.93,-407.35 -201.13,-95.729 -425.14,-146.491 -647.89,-146.819 -132.56,0 -252.43,16.758 -359,50.078 -11.33,-42.269 -25.01,-95.027 -40.88,-157.59 -21.92,-86.418 -53.18,-206.84 -92.89,-357.898 C 4588.01,350.359 4533.42,257.879 4452.91,189.621 4363.21,113.57 4246.81,75 4106.95,75"
         style="fill:#3a3b3e;fill-opacity:1;fill-rule:nonzero;stroke:none"
         id="path14" /><path
         d="m 13445.8,4519.38 c 0,0 0,0 0,-0.01 0,0 0,0.01 0,0.01 z m -3437.7,-2722.7 c 0,0 0,-0.01 0,-0.03 0,0.01 0,0.02 0,0.03 z m 18.7,-254.9 c -0.1,-0.18 -0.1,-0.35 -0.1,-0.52 0,0.17 0,0.34 0.1,0.52 z M 4106.95,75 h -177.47 c -149.05,0 -272.3,17.9805 -376.79,54.969 -133.05,47.113 -240.18,121.801 -318.47,222.019 -1.3,1.66 -2.58,3.332 -3.85,5.012 -79.78,105.52 -125.92,231.02 -133.48,363.031 -5.39,89.188 -0.74,178.84 13.81,266.969 h -149.31 c -199.77,0.07 -360.25,28.24 -490.74,86.1 -162.34,72.01 -287.35,188.7 -361.57,337.48 -49.45,99.25 -80.11,211.84 -91.47,335.6 h -188.53 l -180.19,-433.76 c -3.13,-7.55 -6.51,-15.01 -10.1,-22.35 C 1545.93,1100.29 1364.01,987 1152.17,987 H 890.891 c -81.321,0.148 -162.118,8.75 -240.914,25.59 -98.528,19.96 -191.293,57.68 -275.801,112.16 -0.602,0.38 -1.203,0.77 -1.797,1.16 -94.457,61.6 -172.75,146.61 -226.402,245.82 -45.723,84.36 -92.934,223.72 -59.9457,410.28 19.1797,109.28 69.0317,248.65 161.5627,451.39 77.34,169.34 172.179,363.26 281.937,576.5 108.985,211.66 229.61,436.19 358.559,667.42 127.76,229.18 252.76,449.26 371.48,654.05 119.13,205.65 228.18,389.3 324.05,545.74 101.75,166.03 178.14,282.52 233.49,356.05 52.99,70.84 138.65,170.43 270.36,217.93 69.16,24.93 148.91,36.04 258.62,36.04 v 0 h 468.33 c 159.01,-0.05 297.21,-36.81 410.91,-109.25 v 0 c 106.39,-67.63 193.81,-162.26 252.79,-273.67 0.54,-1.03 1.08,-2.06 1.62,-3.08 47.75,-92.14 80.47,-190.76 97.25,-293.16 13.64,-79.58 23.11,-160.76 28.13,-241.33 29.38,-416.61 54.8,-775.84 76.28,-1077.64 39.11,154.92 74.42,296.34 105.32,421.87 39.74,161.43 68.43,273.68 87.53,342.36 27.55,120.96 69.11,244.23 176.29,335.25 115.63,98.47 249.68,109.89 340.41,109.89 h 192.26 c 0.18,0 0.36,0 0.54,0 218.49,0 397.87,-45.01 535.53,-134.1 25.35,15.25 51.16,29.44 77.41,42.57 0.04,0.02 0.09,0.05 0.14,0.07 186.97,93.4 403.07,140.76 642.32,140.76 563.54,0.05 845.96,-255.41 983.64,-469.72 48.45,-75.41 87,-158.54 115.74,-249.88 29.52,35.25 60.27,69.61 92.22,103.03 176.68,185.18 394.34,335.66 646.67,446.97 255.11,112.54 555.5,169.6 892.81,169.6 549.15,0 940.28,-158.66 1162.52,-471.56 26.79,-37.73 51.15,-77.06 73.09,-117.97 7.6,30.47 15.31,61.42 23.12,92.78 80.96,329.92 320.24,447.45 517.14,447.45 h 192.3 c 136.7,0 252.2,-16.42 353.3,-50.22 69.3,-23.19 132,-53.4 187.8,-90.33 25.9,16.14 52.4,31.47 79.4,45.96 0.5,0.26 1,0.53 1.4,0.79 169.8,90.44 361.2,139.9 553.5,143.04 2.4,0.04 4.9,0.05 7.3,0.06 112,-0.19 221.9,-20.76 326.4,-61.1 77.9,-29.76 151.5,-71.68 217.2,-123.37 46.9,31.99 97.5,58.53 150.4,78.69 25.4,9.95 51.5,18.55 78.6,25.84 5.6,10.37 11.3,20.94 17.1,31.72 44.4,82.96 89.3,165.05 133.4,243.81 43.1,78.33 90.8,155.3 141.7,228.8 0.8,1.09 1.6,2.18 2.4,3.27 116.3,164.37 256.6,247.71 416.8,247.71 h 142.9 c 422.7,0 581.1,-256.95 629.6,-367.42 48,-109.36 71.3,-228.99 69.8,-357.25 h 40.5 c 198.6,-0.09 313.4,-101.62 364.2,-162.12 25.4,-30.14 46.2,-62.86 62.4,-97.57 13.2,9.07 26.6,17.95 40.2,26.67 140.1,89.38 306.1,159.88 493.4,209.72 181.1,48.17 385.1,72.6 606.2,72.6 487.1,0 830.4,-116.92 1049.4,-357.43 67.7,-74.35 137.6,-175.16 187.2,-307.22 13.7,54.85 27.8,111.19 42.2,169.03 81.2,329.04 320.1,446.32 516.8,446.32 h 192.3 c 136.7,0 252.2,-16.42 353.3,-50.22 69.3,-23.19 132.1,-53.4 187.8,-90.34 26,16.14 52.4,31.47 79.4,45.96 0.5,0.27 1,0.54 1.5,0.8 169.7,90.44 361.1,139.9 553.5,143.04 2.4,0.04 4.8,0.05 7.2,0.06 112.2,-0.19 222.2,-20.8 326.8,-61.26 113,-43.24 217,-112.07 301,-199.12 92.8,-96.45 158,-216.06 193.8,-355.73 32.6,-127.77 35.3,-270.63 8.2,-425.05 -22,-125.92 -62.6,-248.13 -120.8,-362.62 v 0 c -57.7,-114.11 -132.4,-218.21 -222,-309.38 -93.9,-95.74 -203.9,-172.36 -326.6,-227.47 -128.1,-57.66 -264.2,-86.88 -404.6,-86.88 -1.1,0 -2.2,0 -3.3,0 -29,0.02 -60,1.15 -92,3.36 -42.3,2.75 -84.6,8.68 -125.9,17.62 -49.5,10.33 -97.5,26.74 -143,48.9 -22.7,-92.81 -48.8,-195.58 -77.9,-306.42 -34.4,-130.7 -67.7,-259.24 -99.2,-382.07 -31,-121.33 -58.5,-230.35 -81.5,-324.1 -27.3,-111.14 -35,-148.45 -36.7,-157.82 -22.7,-140.76 -103.5,-264.9 -223.2,-342.7 -86.5,-57.04 -186.8,-88.09 -290.4,-89.871 -2.3,-0.039 -4.6,-0.059 -6.9,-0.059 h -177.4 c -0.3,0 -0.6,0 -0.9,0 -148.7,0 -271.8,18.01 -376.2,55.07 -115.4,40.92 -211.3,102.63 -285.8,183.76 -83.5,-79.58 -178.9,-144.09 -284.7,-192.28 -136.7,-63.609 -291.9,-95.839 -461.2,-95.839 -243.5,0.07 -438,64.839 -579.7,192.749 -4.4,-2.66 -8.9,-5.3 -13.3,-7.93 -203.5,-122.38 -446.3,-184.569 -721.5,-184.819 -127.8,-1.031 -254.4,15.187 -377.4,48.059 -1.2,0.32 -2.4,0.628 -3.5,0.96 -147.3,40.78 -274.1,111.51 -377,210.24 -26.1,24.99 -50.3,51.6 -72.6,79.75 -24.8,-27.51 -51.1,-53.79 -78.9,-78.81 -192.5,-172.7 -462.6,-260.199 -802.9,-260.199 -357.9,0.019 -627.1,102.749 -800.2,305.369 -174.9,204.82 -232.3,485.64 -170.6,834.67 9.8,56.43 24.2,122.68 43.8,201.71 17.4,69.61 41.1,160.52 70.6,270.85 7.9,29.47 16.2,60.77 25.1,93.9 -24.2,-13.23 -49.1,-25.57 -74.5,-36.98 v 0 c -128.2,-57.79 -264.5,-87.07 -405.1,-87.07 -1.1,0 -2.2,0 -3.3,0 -28.9,0.02 -59.7,1.14 -91.7,3.34 -42.3,2.74 -84.8,8.68 -126.2,17.66 -49.5,10.32 -97.5,26.73 -142.9,48.88 -22.7,-92.8 -48.8,-195.58 -77.9,-306.42 -34.7,-132.12 -68.1,-260.68 -99.2,-382.07 -31.1,-121.63 -58.6,-230.65 -81.5,-324.1 -27.5,-111.66 -35,-148.82 -36.8,-157.95 -22.7,-140.55 -103.4,-264.56 -222.8,-342.34 -86.5,-57.19 -186.9,-88.32 -290.7,-90.101 -2.3,-0.039 -4.6,-0.059 -6.9,-0.059 h -177.5 c -149.03,0 -272.28,17.98 -376.77,54.97 -133.13,47.12 -240.33,121.9 -318.61,222.25 -71.69,91.64 -116.19,199.11 -132.32,319.65 -95.08,-104.44 -201.26,-198.56 -316.77,-280.69 v 0 C 8817.88,1190.9 8636.63,1101.03 8436.19,1036.07 8235,970.801 8007.24,937.711 7759.22,937.711 c -288.24,0.039 -522.33,43.598 -715.68,133.199 -209.97,97.29 -372.49,237.43 -483.07,416.51 -37.84,61.24 -69.8,126.01 -95.82,194.06 -49.46,-67.47 -101.61,-130.76 -156.28,-189.6 -163.98,-176.52 -348.33,-313.57 -547.93,-407.35 -201.13,-95.729 -425.14,-146.491 -647.89,-146.819 -132.56,0 -252.43,16.758 -359,50.078 -11.33,-42.269 -25.01,-95.027 -40.88,-157.59 -21.92,-86.418 -53.18,-206.84 -92.89,-357.898 C 4588.01,350.359 4533.42,257.879 4452.91,189.621 4363.21,113.57 4246.81,75 4106.95,75 Z"
         style="fill:none;stroke:#3a3b3e;stroke-width:150;stroke-linecap:butt;stroke-linejoin:miter;stroke-miterlimit:10;stroke-dasharray:none;stroke-opacity:1"
         id="path16" /><path
         d="m 13654.9,3437.14 c 147.9,0 251,30.41 309.3,91.21 58.5,60.78 99.6,140.47 123.5,239.09 l 66.8,266.2 c 8,45.99 -14.2,68.99 -66.8,69.02 h -517.6 c 32.5,128.18 54.5,225.13 66.1,290.86 20.8,118.31 12.5,220.19 -25,305.64 -37.5,85.45 -125.3,128.18 -263.3,128.18 H 13205 c -23.1,0 -53.2,-26.29 -90.4,-78.88 -43.6,-62.78 -83.8,-127.78 -120.6,-194.73 -43.3,-77.25 -86.9,-156.95 -130.9,-239.09 -44.1,-82.19 -82.8,-152.85 -116.3,-211.98 -75.6,0 -138.1,-9.86 -187.6,-29.58 -45.4,-16.99 -86.4,-43.94 -120,-78.87 -29.9,-32.15 -53.3,-69.82 -68.8,-110.92 -15.4,-41.14 -28.6,-83.11 -39.4,-125.71 l -59.1,-251.42 c -4,-16.98 -4.6,-34.56 -1.8,-51.76 2.9,-11.55 17.5,-17.26 43.9,-17.26 h 261.2 c -57.6,-233.39 -107.7,-428.94 -150.3,-586.64 -42.6,-157.7 -78.3,-290.8 -107.3,-399.31 -29,-108.45 -52,-196.36 -68.8,-263.74 -16.7,-67.39 -29.6,-125.71 -38.2,-175.01 -40,-226.77 -13.1,-395.19 81,-505.29 94,-110.1 259.3,-165.15 495.9,-165.16 239.9,0 418.4,52.59 535.6,157.76 117,105.17 191.6,248.13 223.5,428.89 16.7,95.28 17.6,156.08 2.6,182.4 -15.2,26.3 -34.2,39.44 -57.1,39.44 -23.2,-0.07 -45.8,-6.92 -65.1,-19.72 -20.5,-13.15 -43.6,-27.94 -69.5,-44.37 -26.2,-16.64 -53.5,-31.47 -81.7,-44.37 -30.6,-13.55 -63.7,-20.29 -97.1,-19.71 -46.1,0 -76.5,13.96 -91.4,41.89 -14.8,27.94 -14.6,84.63 0.5,170.09 8.1,45.97 22.2,111.71 42.1,197.19 20.1,85.42 44.6,182.37 73.5,290.85 29,108.48 60,223.51 93,345.08 32.9,121.55 65.3,244.79 97.1,369.73 h 261.4 z m -1937.4,-460.92 c 76.7,34.43 146.3,82.91 205.1,142.95 60.6,61.66 111.4,132.33 150.4,209.52 40.3,79.18 68.5,163.92 83.8,251.42 17.3,98.59 16.8,184.04 -1.7,256.35 -18.4,72.3 -49.9,131.46 -94.4,177.47 -44,45.65 -97.5,81 -156.7,103.52 -58.6,22.7 -120.9,34.4 -183.7,34.51 -129.9,-2.12 -257.4,-35.07 -372,-96.13 -69.2,-37.21 -134,-81.83 -193.5,-133.1 -66.4,-57.13 -125.2,-122.58 -174.9,-194.73 2.2,47.96 -1.7,96.01 -11.7,142.96 -9.8,45.6 -32.4,87.48 -65,120.78 -33.4,34.51 -79.5,61.62 -138.5,81.34 -58.9,19.72 -134.4,29.58 -226.4,29.58 H 10346 c -62.5,0 -105.4,-47.65 -128.7,-142.96 -90.1,-361.57 -165.8,-664.75 -227.04,-909.55 -61.26,-244.79 -112.5,-446.91 -153.73,-606.35 -41.25,-159.44 -72.3,-284.33 -93.15,-374.66 -20.9,-90.45 -35.67,-160.28 -44.33,-209.52 -12.73,-65.73 -17.1,-132.82 -13.01,-199.66 4.65,-57.53 22.4,-106 53.24,-145.42 30.76,-39.44 76.33,-69.84 136.69,-91.21 60.37,-21.36 141.53,-32.04 243.33,-32.03 h 177.5 c 27.9,0.47 55.1,9.03 78.2,24.65 26,16.47 43.4,43.5 47.7,73.94 5.1,29.58 19.4,92.03 42.8,187.33 23.4,95.31 50.9,204.59 82.5,327.83 31.6,123.25 64.8,251.43 99.8,384.52 34.9,133.1 65,252.23 90.1,357.41 58.7,239.86 129.1,419.79 211.1,539.8 82,120.01 169,179.99 260.9,179.94 59.2,0 94.6,-23 106.2,-69.01 11.5,-46.07 11,-105.22 -1.7,-177.47 -7,-39.44 -15.3,-77.24 -25,-113.39 -9.6,-36.15 -18.2,-75.59 -25.8,-118.31 -2.2,-13.15 4.1,-23.83 19.1,-32.04 17.5,-9.16 36.2,-15.8 55.6,-19.72 23,-5.07 46.3,-8.37 69.8,-9.86 24.3,-1.7 46.4,-2.47 66.1,-2.47 83.9,-0.34 166.8,17.31 243.3,51.77 z M 8658.93,3355.8 c 44.33,-93.66 51.98,-222.65 22.95,-386.98 -18.21,-95.03 -42.15,-188.86 -71.69,-281 -34.54,-111.76 -81.62,-219.25 -140.32,-320.44 -56.85,-99.34 -130.88,-187.81 -218.65,-261.27 -84.45,-71.5 -191.92,-110.02 -302.57,-108.45 -128.16,0 -217.77,50.93 -268.82,152.82 -51.04,101.88 -57.43,261.28 -19.17,478.18 16.18,85.66 36.88,170.41 62.01,253.89 29.11,100.2 70.89,196.28 124.32,285.92 53.61,90.19 124.47,168.92 208.54,231.71 85.19,64.07 190.25,96.12 315.19,96.12 147.88,0 243.95,-46.83 288.2,-140.5 z M 8312.74,1420.87 c 162.09,52.54 305.23,123.19 429.4,211.98 121.4,86.18 230,189.08 322.61,305.65 88.02,110.59 165.1,229.46 230.16,354.94 60.85,117.53 110.57,240.49 148.52,367.27 33.56,110.94 60.84,223.68 81.72,337.68 64.36,364.81 24.82,648.27 -118.63,850.39 -143.57,202.12 -422.37,303.18 -836.42,303.18 -282.69,0 -526.48,-45.19 -731.37,-135.57 -204.89,-90.38 -377.88,-209.52 -518.97,-357.4 -140.55,-147.03 -253.4,-318.2 -333.14,-505.3 -79.99,-185.76 -138.27,-380.13 -173.67,-579.26 -30.11,-170.89 -40.28,-331.11 -30.5,-480.65 9.78,-149.54 49.2,-280.18 118.24,-391.91 69.02,-111.77 172.64,-199.68 310.88,-263.73 138.24,-64.07 320.75,-96.11 547.53,-96.15 207.05,0 391.6,26.3 553.63,78.88 z M 5556.03,3442.08 c 46.47,-36.57 80.67,-86.44 98.05,-142.97 20.03,-66.26 28.68,-135.43 25.57,-204.58 -2.43,-80.2 -10.75,-160.11 -24.88,-239.09 -52.23,-295.79 -138.14,-512.7 -257.73,-650.73 -119.7,-138.04 -250.18,-207.05 -391.45,-207.05 -78.88,0 -140.32,19.71 -184.33,59.16 -44.01,39.43 -75,92.02 -92.97,157.74 -18.71,72.38 -26.3,147.19 -22.49,221.85 3.23,84.32 12.29,168.33 27.11,251.41 44.06,249.73 118.27,446.91 222.61,591.57 104.35,144.66 240.36,216.96 408.02,216.91 82.09,0 146.25,-18.08 192.49,-54.22 z m -180.57,611.29 C 5243.91,3987.58 5127,3879.13 5024.76,3728 c 17.95,101.83 -6.81,189.75 -74.26,263.74 -67.45,74.01 -189.92,110.98 -367.41,110.92 h -192.26 c -42.75,0 -69.92,-4.93 -81.5,-14.79 -15.48,-13.14 -31.21,-55.87 -47.21,-128.17 -17.64,-62.47 -46.68,-175.86 -87.12,-340.15 -40.44,-164.3 -87.58,-352.45 -141.43,-564.46 -53.84,-211.98 -110.37,-434.65 -169.58,-667.98 -59.21,-233.34 -114.03,-451.07 -164.45,-653.19 -50.47,-202.12 -93.4,-375.49 -128.76,-520.09 -35.37,-144.61 -55.94,-233.35 -61.7,-266.209 -12.71,-65.742 -17.09,-132.82 -13.02,-199.652 2.88,-52.707 21.42,-103.34 53.25,-145.438 30.8,-39.429 76.38,-69.832 136.72,-91.191 60.34,-21.36 141.45,-32.039 243.33,-32.051 h 177.47 c 42.68,0 71.77,6.57 87.27,19.711 15.5,13.16 28.37,39.449 38.59,78.879 39.75,151.211 70.46,269.519 92.12,354.941 21.67,85.43 39.31,152.81 52.92,202.13 13.56,49.3 23.82,88.73 30.77,118.31 6.83,29.58 15.23,63.26 25.18,101.06 9.95,37.79 23.72,87.91 41.29,150.36 17.56,62.39 41.72,152.77 72.48,271.14 31.51,-138.04 89.89,-244.85 175.16,-320.44 85.27,-75.58 215.01,-113.39 389.23,-113.39 165.25,0.25 328.38,37.3 477.54,108.46 154.06,72.26 296,178.24 425.81,317.97 129.8,139.73 241.95,309.8 336.45,510.23 94.51,200.42 164.37,428.84 209.59,685.24 72.41,410.78 47.37,711.5 -75.1,902.14 -122.47,190.65 -338.18,285.95 -647.11,285.93 -177.47,0 -331.99,-32.87 -463.56,-98.59 z m -2920.58,113.38 -22.49,-1301.46 h -566.92 z m -108.92,724.67 c -59.15,0 -100.13,-4.1 -122.93,-12.33 -22.8,-8.21 -51.4,-35.32 -85.81,-81.33 -47.14,-62.47 -118.03,-170.93 -212.67,-325.37 -94.65,-154.43 -201,-333.55 -319.05,-537.34 -118.16,-203.81 -240.89,-419.9 -368.19,-648.27 C 1109.9,3058.33 992.484,2839.78 885.059,2631.13 777.605,2422.37 686.379,2235.86 611.363,2071.6 536.332,1907.23 492.477,1788.91 479.797,1716.66 c -10.461,-59.16 -4.492,-109.28 17.894,-150.35 22.122,-40.92 54.118,-75.65 93.075,-101.06 42.789,-27.58 90.406,-46.82 140.343,-56.69 52.461,-11.39 105.977,-17.17 159.653,-17.26 h 261.278 c 59.16,0 101.6,26.29 127.33,78.87 l 282.61,680.31 h 857.78 c -7.71,-118.32 -9.97,-224.31 -6.78,-317.97 3.18,-93.66 21.16,-173.36 53.91,-239.09 32.82,-65.78 88.08,-115.91 165.77,-150.36 77.7,-34.47 187.23,-51.72 328.6,-51.76 h 251.42 c 45.98,0 81.1,8.21 105.37,24.65 24.26,16.42 40.46,47.64 48.6,93.66 6.93,39.43 9.53,110.1 7.79,211.98 -1.74,101.88 -8.58,258.81 -20.51,470.78 -11.94,212 -30.19,490.53 -54.76,835.6 -24.65,345.09 -55.74,783.84 -93.28,1316.25 -4.17,67.75 -12.03,135.23 -23.57,202.12 -9.86,61.04 -29.39,120.11 -57.84,175 -26.61,50.27 -65.84,92.74 -113.85,123.25 -48.75,31.19 -114.2,46.8 -196.34,46.83 h -468.33 v 0"
         style="fill:#ef2e4c;fill-opacity:1;fill-rule:evenodd;stroke:none"
         id="path18" /><path
         d="m 13902.3,1690.19 c 23,-83.82 61.9,-152.02 116.7,-204.59 54.8,-52.58 123.7,-90.37 206.8,-113.39 88.9,-23.72 180.5,-35.33 272.5,-34.5 203.7,0 376.4,42.72 518,128.17 135.6,80.44 257.5,181.95 361.2,300.71 2.4,-134.79 36.5,-239.97 102.1,-315.5 65.6,-75.54 177.2,-113.34 334.9,-113.38 111.7,0 209.7,19.71 293.9,59.16 79.5,36.01 150.8,88.03 209.4,152.82 54.8,61.58 99.6,131.46 132.6,207.04 31.6,70.97 54.6,145.43 68.6,221.85 4.7,26.28 -7.2,42.72 -35.6,49.29 -32.6,7.81 -64.6,17.7 -95.8,29.58 -36.4,13.8 -67.4,38.84 -88.5,71.48 -23.5,34.51 -28,92.85 -13.5,175.01 6.3,36.12 21.7,100.21 46.2,192.26 24.5,92.04 51.6,189.82 81.3,293.31 29.7,103.54 56.9,202.13 81.7,295.79 24.8,93.67 40.3,158.58 46.7,194.73 48.7,276.06 4.2,489.69 -133.5,640.87 -137.7,151.18 -388.9,226.77 -753.7,226.77 -187.3,0 -355.1,-19.72 -503.4,-59.16 -148.2,-39.44 -275.2,-92.84 -380.8,-160.21 -105.4,-67.4 -190.1,-147.1 -254,-239.1 -61.8,-86.8 -103.7,-186.09 -122.8,-290.86 -44.7,-253.11 100.6,-379.64 435.8,-379.59 49.3,0 86.2,4.11 110.7,12.33 24.5,8.22 42.6,27.11 54.3,56.69 23.6,59.15 48,113.38 73.2,162.68 22.6,45.76 51.6,88.08 86.2,125.71 33.1,35.07 73.3,62.78 117.8,81.34 46.2,19.72 103.8,29.58 172.8,29.58 124.9,0 201.6,-31.22 230,-93.67 28.5,-62.44 33.5,-146.25 14.9,-251.42 -6.4,-36.2 -12.6,-66.6 -18.6,-91.19 -6.1,-24.66 -13.8,-55.08 -23.4,-91.2 -521.7,-13.15 -930.4,-103.53 -1226.1,-271.14 -295.7,-167.61 -469.7,-399.31 -521.9,-695.1 -20.8,-118.31 -19.7,-219.37 3.3,-303.17 v 0"
         style="fill:#fde5b5;fill-opacity:1;fill-rule:evenodd;stroke:none"
         id="path20" /><path
         d="m 15433.7,2308.87 c -37.9,-64.03 -83.9,-122.84 -137,-175 -45.7,-45.22 -99.7,-81.2 -159.1,-106 -51.9,-22.01 -107.5,-33.74 -163.9,-34.51 -52.6,-1 -104.2,14.52 -147.5,44.38 -42.4,29.58 -56.9,82.15 -43.5,157.75 10.6,64 41.7,122.82 88.6,167.61 50.6,47.93 109.9,85.59 174.8,110.91 74.2,29.28 151.4,49.97 230.3,61.63 84.3,13.1 169.6,19.69 255,19.71 -23.5,-95.36 -56.1,-177.52 -97.8,-246.48 h 0.1"
         style="fill:#3a3b3e;fill-opacity:1;fill-rule:evenodd;stroke:none"
         id="path22" /><path
         d="m 18821.5,2971.92 c 76.7,34.45 146.2,82.93 205.1,142.96 60.6,61.68 111.3,132.35 150.4,209.52 40.2,79.17 68.5,163.91 83.7,251.42 17.4,98.59 16.8,184.04 -1.6,256.34 -18.6,72.26 -50,131.41 -94.4,177.47 -44,45.64 -97.5,80.99 -156.8,103.53 -58.6,22.7 -120.9,34.4 -183.7,34.51 -129.9,-2.13 -257.4,-35.08 -372,-96.14 -69.1,-37.2 -134,-81.83 -193.5,-133.09 -66.4,-57.15 -125.1,-122.6 -174.8,-194.73 2.2,47.96 -1.8,96.01 -11.8,142.96 -9.8,45.61 -32.3,87.5 -65,120.79 -33.3,34.49 -79.5,61.61 -138.4,81.33 -59,19.72 -134.5,29.58 -226.5,29.58 h -192.3 c -62.4,0 -105.3,-47.66 -128.7,-142.96 -90.1,-361.57 -165.7,-664.75 -227,-909.54 -61.3,-244.8 -112.5,-446.91 -153.7,-606.36 -41.3,-159.44 -72.3,-284.33 -93.2,-374.66 -20.9,-90.44 -35.6,-160.29 -44.3,-209.52 -12.7,-65.74 -17.1,-132.82 -13,-199.66 4.6,-57.53 22.4,-106 53.2,-145.42 30.9,-39.42 76.4,-69.82 136.7,-91.21 60.4,-21.4 141.5,-32.09 243.4,-32.04 h 177.4 c 27.9,0.48 55.1,9.05 78.3,24.65 25.9,16.46 43.4,43.5 47.6,73.95 5.1,29.58 19.4,92.02 42.8,187.33 23.5,95.31 51,204.58 82.5,327.82 31.6,123.25 64.8,251.43 99.8,384.52 35,133.1 65,252.24 90.2,357.42 58.7,239.86 129,419.8 211,539.8 82.1,120.01 169.1,179.99 261,179.94 59.1,0 94.5,-23.01 106.1,-69.02 11.7,-46.01 11.1,-105.16 -1.6,-177.47 -7,-39.44 -15.4,-77.23 -25,-113.38 -9.7,-36.15 -18.3,-75.59 -25.8,-118.32 -2.3,-13.14 4,-23.82 19,-32.03 17.5,-9.16 36.3,-15.8 55.7,-19.72 22.9,-5.07 46.2,-8.36 69.7,-9.86 24.4,-1.7 46.5,-2.47 66.2,-2.47 83.8,-0.34 166.8,17.31 243.2,51.76 h 0.1"
         style="fill:#fde5b5;fill-opacity:1;fill-rule:evenodd;stroke:none"
         id="path24" /></g></g></svg>
