<svg id="f364324e-9cf3-4c78-b0e6-68a13af3ebca" data-name="Capa 1" xmlns="http://www.w3.org/2000/svg" viewBox="0 0 1974.82 536.21"><defs><style>.e4334b3e-4984-418f-a65f-b158a92d8e51,.f6b841d5-463e-4a18-a9d4-6a1a514d7380{fill:#494949;}.e4334b3e-4984-418f-a65f-b158a92d8e51{stroke:#494949;stroke-miterlimit:10;stroke-width:15px;}.f8ff21c7-7b35-4907-aa51-6f72e92a4aa8{fill:#dc3545;}.a14aa7de-f600-4bf0-ae79-1f17d78eed63,.f6b841d5-463e-4a18-a9d4-6a1a514d7380,.f8ff21c7-7b35-4907-aa51-6f72e92a4aa8{fill-rule:evenodd;}.a14aa7de-f600-4bf0-ae79-1f17d78eed63{fill:#fdecc8;}</style></defs><g id="bb91a007-b777-4683-b7f6-5f78682bbfae" data-name="Capa 1"><g id="ba08dc3a-b6f9-4b69-8ca8-7c56c8f42d4d" data-name="Aportar"><path class="e4334b3e-4984-418f-a65f-b158a92d8e51" d="M614.94,540.29H597.19c-14.9,0-27.23-1.79-37.68-5.49-13.3-4.71-24-12.18-31.85-22.21-.13-.16-.25-.33-.38-.5a66.28,66.28,0,0,1-13.35-36.3,120,120,0,0,1,1.38-26.7H500.38c-20,0-36-2.82-49.07-8.61-16.24-7.2-28.74-18.87-36.16-33.74A94.35,94.35,0,0,1,406,373.18H387.15l-18,43.37c-.31.76-.65,1.5-1,2.24a53.11,53.11,0,0,1-48.66,30.3H293.33a116.26,116.26,0,0,1-24.09-2.55,80.07,80.07,0,0,1-27.58-11.22l-.18-.12a68.13,68.13,0,0,1-22.64-24.58c-4.57-8.44-9.29-22.37-6-41,1.91-10.92,6.9-24.86,16.15-45.14,7.74-16.93,17.22-36.32,28.2-57.65,10.89-21.16,23-43.62,35.85-66.74,12.78-22.92,25.28-44.92,37.15-65.4S353,95.73,362.6,80.08c10.18-16.6,17.82-28.25,23.35-35.6,5.3-7.09,13.87-17,27-21.79,6.92-2.5,14.89-3.61,25.86-3.61h46.83c15.91,0,29.72,3.68,41.1,10.93h0a72.85,72.85,0,0,1,25.27,27.36l.17.31A98.35,98.35,0,0,1,561.94,87a224.8,224.8,0,0,1,2.81,24.13q4.41,62.49,7.63,107.76c3.91-15.49,7.44-29.63,10.53-42.18,4-16.15,6.85-27.37,8.76-34.24,2.75-12.09,6.91-24.42,17.63-33.52,11.56-9.85,25-11,34-11h19.28c21.85,0,39.78,4.5,53.55,13.41q3.81-2.3,7.74-4.26h0C742.62,97.76,764.23,93,788.16,93c56.35,0,84.59,25.54,98.36,47a102.82,102.82,0,0,1,11.57,25q4.44-5.3,9.23-10.31C925,136.17,946.75,121.12,972,110c25.52-11.26,55.55-17,89.29-17,54.91,0,94,15.86,116.25,47.15a112.53,112.53,0,0,1,7.31,11.8l2.31-9.28c8.09-33,32-44.74,51.71-44.74h19.23c13.67,0,25.22,1.64,35.33,5a79.65,79.65,0,0,1,18.78,9c2.6-1.61,5.25-3.15,7.94-4.59l.15-.08A122.47,122.47,0,0,1,1375.63,93h.72A90.61,90.61,0,0,1,1409,99.14a83.64,83.64,0,0,1,21.73,12.33,72.48,72.48,0,0,1,15-7.87,76.08,76.08,0,0,1,7.86-2.58l1.71-3.17c4.44-8.3,8.93-16.51,13.34-24.38a261.46,261.46,0,0,1,14.18-22.88l.23-.33c11.64-16.44,25.66-24.77,41.68-24.77H1539c42.27,0,58.11,25.7,63,36.74A85.57,85.57,0,0,1,1609,98h4c19.86,0,31.35,10.16,36.43,16.21a44,44,0,0,1,6.23,9.76q2-1.37,4-2.67c14-8.94,30.61-16,49.34-21,18.11-4.82,38.51-7.26,60.62-7.26,48.71,0,83,11.69,104.94,35.74a95.07,95.07,0,0,1,18.73,30.72q2-8.22,4.21-16.9c8.12-32.9,32-44.63,51.69-44.63h19.23c13.66,0,25.22,1.64,35.32,5a79.65,79.65,0,0,1,18.78,9q3.9-2.42,7.94-4.59l.15-.08A122.54,122.54,0,0,1,2086,93h.72a90.93,90.93,0,0,1,32.69,6.12,83.7,83.7,0,0,1,30.09,19.92,78.58,78.58,0,0,1,19.38,35.57c3.27,12.78,3.54,27.06.82,42.5a128.92,128.92,0,0,1-12.08,36.26h0a123.47,123.47,0,0,1-22.2,30.94,106.93,106.93,0,0,1-32.65,22.75,97.94,97.94,0,0,1-40.47,8.69H2062c-2.9,0-6-.12-9.2-.34a86.1,86.1,0,0,1-12.59-1.76,60.88,60.88,0,0,1-14.3-4.89c-2.26,9.28-4.88,19.56-7.79,30.64-3.43,13.07-6.77,25.93-9.91,38.21s-5.86,23-8.16,32.41c-2.73,11.11-3.49,14.84-3.67,15.78A50.37,50.37,0,0,1,1974,440.1a54.34,54.34,0,0,1-29,9h-18.52c-14.87,0-27.18-1.8-37.62-5.5a69.81,69.81,0,0,1-28.58-18.38,102.91,102.91,0,0,1-28.47,19.23c-13.67,6.36-29.18,9.58-46.11,9.58-24.35,0-43.81-6.48-58-19.27l-1.32.79C1706,447.78,1681.77,454,1654.24,454a141.62,141.62,0,0,1-37.74-4.8l-.35-.1a87.35,87.35,0,0,1-37.7-21,78.24,78.24,0,0,1-7.26-8,106.66,106.66,0,0,1-7.89,7.88c-19.25,17.27-46.25,26-80.29,26-35.79,0-62.71-10.27-80-30.53-17.49-20.49-23.23-48.57-17.06-83.47,1-5.64,2.42-12.27,4.38-20.17,1.74-7,4.11-16.05,7.06-27.09q1.19-4.41,2.51-9.39c-2.42,1.33-4.91,2.56-7.44,3.7h0a98,98,0,0,1-40.51,8.71h-.33c-2.89,0-6-.12-9.18-.34a85.35,85.35,0,0,1-12.62-1.76,61.1,61.1,0,0,1-14.29-4.89c-2.27,9.28-4.88,19.56-7.79,30.64-3.47,13.21-6.81,26.07-9.92,38.21s-5.85,23.06-8.15,32.41c-2.75,11.16-3.5,14.88-3.68,15.79a50.37,50.37,0,0,1-22.28,34.24,54.29,54.29,0,0,1-29.07,9h-18.43c-14.91,0-27.24-1.79-37.69-5.49-13.31-4.72-24-12.19-31.86-22.23a65.14,65.14,0,0,1-13.23-32,198.24,198.24,0,0,1-31.68,28.07h0a196.8,196.8,0,0,1-53.87,26.71c-20.12,6.52-42.89,9.83-67.7,9.83-28.82,0-52.23-4.36-71.56-13.32-21-9.73-37.25-23.74-48.31-41.65a115.07,115.07,0,0,1-9.58-19.4,213.83,213.83,0,0,1-15.63,19c-16.4,17.65-34.83,31.35-54.79,40.73A152.26,152.26,0,0,1,715.5,454a119.84,119.84,0,0,1-35.9-5c-1.14,4.23-2.5,9.51-4.09,15.76-2.19,8.65-5.32,20.69-9.29,35.79-3.18,12.2-8.64,21.45-16.69,28.27C640.56,536.44,628.92,540.29,614.94,540.29Zm592-146.67v0Zm-1.87-25.49h0ZM1548.83,95.86Z" transform="translate(-204.24 -11.58)"/></g></g><g id="e765f4a8-5838-4c81-8897-5c2899286613" data-name="Aportar"><path class="f8ff21c7-7b35-4907-aa51-6f72e92a4aa8" d="M438.84,58.65q-8.88,0-12.3,1.23T418,68q-7.06,9.38-21.26,32.53t-31.91,53.74Q347.08,184.86,328,219.12t-35.22,65.56Q276.63,316,265.38,340.63t-13.16,35.5q-1.56,8.87,1.79,15a27.89,27.89,0,0,0,9.31,10.11,40.38,40.38,0,0,0,14,5.67,75.24,75.24,0,0,0,16,1.72h26.13q8.87,0,12.73-7.88l28.26-68h85.78q-1.16,17.75-.68,31.79t5.39,23.91q4.92,9.87,16.58,15t32.86,5.17h25.14q6.9,0,10.54-2.46t4.86-9.37q1-5.91.78-21.19t-2.05-47.08q-1.8-31.8-5.48-83.56t-9.33-131.63a185.56,185.56,0,0,0-2.36-20.21,57.93,57.93,0,0,0-5.78-17.5,32.71,32.71,0,0,0-11.38-12.32q-7.32-4.68-19.64-4.69Zm10.89,72.47-2.25,130.14H390.79Zm292.06,11.34q-19.74,9.87-35.07,32.53,2.68-15.27-7.43-26.37t-36.74-11.09H643.32c-4.27,0-7,.49-8.14,1.48q-2.32,2-4.73,12.81-2.64,9.38-8.71,34T607.6,242.28q-8.07,31.8-17,66.8T574.2,374.4q-7.58,30.32-12.88,52T555.15,453a79.61,79.61,0,0,0-1.3,20,26.53,26.53,0,0,0,5.32,14.54q4.62,5.91,13.68,9.12t24.33,3.2h17.74c4.27,0,7.18-.65,8.73-2s2.84-3.94,3.86-7.88q6-22.69,9.21-35.5T642,434.3q2-7.4,3.07-11.83c.69-3,1.52-6.33,2.52-10.11s2.37-8.79,4.13-15,4.17-15.28,7.25-27.12q4.72,20.71,17.51,32.05t38.93,11.33a111.17,111.17,0,0,0,47.75-10.84q23.12-10.85,42.58-31.8t33.65-51q14.18-30.06,21-68.52,10.86-61.62-7.51-90.22T788.14,132.6Q761.53,132.6,741.79,142.46Zm18.05,61.13a29,29,0,0,1,9.81,14.29,61.34,61.34,0,0,1,2.56,20.46,165.4,165.4,0,0,1-2.49,23.91q-7.83,44.37-25.77,65.07T704.8,348q-11.84,0-18.43-5.92a31.87,31.87,0,0,1-9.3-15.77,73.74,73.74,0,0,1-2.25-22.19A184.54,184.54,0,0,1,677.53,279q6.62-37.45,22.26-59.16t40.81-21.69Q752.92,198.16,759.84,203.59Zm275.68,202.12a156.05,156.05,0,0,0,42.94-21.2,158,158,0,0,0,32.26-30.57,217.69,217.69,0,0,0,23-35.49,212.19,212.19,0,0,0,14.86-36.73,310.35,310.35,0,0,0,8.17-33.77q9.65-54.72-11.87-85t-83.64-30.32q-42.4,0-73.13,13.56t-51.9,35.74a169,169,0,0,0-33.32,50.53,263.11,263.11,0,0,0-17.36,57.92,201.47,201.47,0,0,0-3,48.07q1.47,22.43,11.82,39.19T925.4,404q20.73,9.61,54.75,9.61,31.07,0,55.37-7.88Zm34.62-193.5q6.64,14.06,2.29,38.7a238.54,238.54,0,0,1-7.17,28.1,154.93,154.93,0,0,1-14,32.05,96.7,96.7,0,0,1-21.87,26.12A45.79,45.79,0,0,1,999.11,348q-19.23,0-26.88-15.28t-1.92-47.82a248.54,248.54,0,0,1,6.2-25.39A122.7,122.7,0,0,1,988.94,231a79.66,79.66,0,0,1,20.86-23.17q12.76-9.61,31.51-9.62,22.18,0,28.82,14.05Zm305.85,38a67.27,67.27,0,0,0,20.51-14.29,83.82,83.82,0,0,0,15-20.95,89.42,89.42,0,0,0,8.38-25.15q2.6-14.79-.17-25.63a38.67,38.67,0,0,0-9.44-17.75,43,43,0,0,0-15.67-10.35,51.09,51.09,0,0,0-18.37-3.45,82,82,0,0,0-37.2,9.61,108.11,108.11,0,0,0-19.35,13.31A102.14,102.14,0,0,0,1302.23,175a55.76,55.76,0,0,0-1.17-14.29,24.7,24.7,0,0,0-6.5-12.08q-5-5.18-13.84-8.13t-22.65-3h-19.23q-9.37,0-12.87,14.29-13.52,54.24-22.7,91t-15.37,60.63q-6.2,23.93-9.32,37.47t-4.43,20.95a79.14,79.14,0,0,0-1.3,20,26.46,26.46,0,0,0,5.32,14.54q4.62,5.91,13.67,9.12t24.33,3.2h17.75a14.35,14.35,0,0,0,7.82-2.46,10.49,10.49,0,0,0,4.77-7.4q.77-4.43,4.28-18.73t8.25-32.78q4.74-18.5,10-38.45t9-35.74q8.79-36,21.1-54t26.09-18q8.88,0,10.62,6.9t-.16,17.75q-1.07,5.91-2.5,11.34t-2.58,11.83c-.23,1.31.4,2.38,1.9,3.2a21.14,21.14,0,0,0,5.57,2,46.59,46.59,0,0,0,7,1c2.44.17,4.64.25,6.62.25a58.6,58.6,0,0,0,24.32-5.18Zm193.74-46.09q22.18,0,30.93-9.12T1613,171.05l6.67-26.62q1.2-6.9-6.67-6.9h-51.77q4.88-19.23,6.61-29.09,3.12-17.75-2.5-30.56T1539,65.06h-14.29q-3.46,0-9,7.89a222.74,222.74,0,0,0-12.06,19.47q-6.48,11.6-13.09,23.91t-11.62,21.2q-11.36,0-18.77,3a32.32,32.32,0,0,0-12,7.88,33.93,33.93,0,0,0-6.87,11.09,118.28,118.28,0,0,0-4,12.58l-5.91,25.14a13.24,13.24,0,0,0-.18,5.17c.3,1.16,1.75,1.73,4.39,1.73h26.12q-8.64,35-15,58.66T1436,302.67q-4.35,16.27-6.88,26.38c-1.67,6.74-3,12.57-3.81,17.5q-6,34,8.09,50.53t49.6,16.51q36,0,53.55-15.77t22.36-42.89q2.5-14.3.25-18.24t-5.71-3.94a11.78,11.78,0,0,0-6.51,2q-3.06,2-7,4.43a67.2,67.2,0,0,1-8.17,4.44,22.88,22.88,0,0,1-9.71,2q-6.91,0-9.13-4.19t0-17q1.23-6.9,4.22-19.72t7.35-29.09q4.34-16.28,9.29-34.51t9.72-37Z" transform="translate(-204.24 -11.58)"/></g><g id="b8e375c3-de35-4a1d-aaf1-d0c5153a8255" data-name="Capa 3"><path class="a14aa7de-f600-4bf0-ae79-1f17d78eed63" d="M1594.47,378.78q3.45,12.57,11.67,20.45a47.62,47.62,0,0,0,20.68,11.34,101.49,101.49,0,0,0,27.25,3.45q30.56,0,51.8-12.81A148.69,148.69,0,0,0,1742,371.13q.38,20.22,10.21,31.56T1785.7,414q16.75,0,29.38-5.91A63.75,63.75,0,0,0,1836,392.83a78.29,78.29,0,0,0,13.26-20.71,98,98,0,0,0,6.87-22.18c.46-2.63-.73-4.28-3.57-4.93a78.54,78.54,0,0,1-9.58-3,18.26,18.26,0,0,1-8.85-7.15q-3.53-5.17-1.35-17.5.95-5.41,4.62-19.23t8.13-29.33q4.46-15.52,8.18-29.58t4.67-19.47q7.29-41.41-13.36-64.09T1769.67,133q-28.1,0-50.33,5.91t-38.09,16a88.3,88.3,0,0,0-25.4,23.91A72.73,72.73,0,0,0,1643.57,208q-6.71,38,43.58,38,7.39,0,11.07-1.23t5.44-5.67q3.52-8.88,7.31-16.27a53.85,53.85,0,0,1,8.62-12.57,34.45,34.45,0,0,1,11.78-8.14q6.93-3,17.28-2.95,18.74,0,23,9.36t1.5,25.14q-1,5.43-1.87,9.12t-2.34,9.12q-78.26,2-122.6,27.12t-52.2,69.51q-3.12,17.75.33,30.32Z" transform="translate(-204.24 -11.58)"/><path class="f6b841d5-463e-4a18-a9d4-6a1a514d7380" d="M1747.61,316.91a85.92,85.92,0,0,1-13.7,17.5A50,50,0,0,1,1718,345a43.51,43.51,0,0,1-16.39,3.45,25.14,25.14,0,0,1-14.75-4.44q-6.36-4.44-4.35-15.77a29.92,29.92,0,0,1,8.87-16.77,53.81,53.81,0,0,1,17.48-11.09,104.1,104.1,0,0,1,23-6.16,166.21,166.21,0,0,1,25.5-2,88.35,88.35,0,0,1-9.77,24.65Z" transform="translate(-204.24 -11.58)"/><path class="a14aa7de-f600-4bf0-ae79-1f17d78eed63" d="M2086.39,250.6a67.27,67.27,0,0,0,20.51-14.29,83.94,83.94,0,0,0,15-21,88.91,88.91,0,0,0,8.37-25.14q2.61-14.79-.16-25.63a39,39,0,0,0-9.44-17.75A43,43,0,0,0,2105,136.48a51.05,51.05,0,0,0-18.37-3.45,81.94,81.94,0,0,0-37.2,9.61A107.68,107.68,0,0,0,2030.12,156a102.44,102.44,0,0,0-17.49,19.47,55.77,55.77,0,0,0-1.18-14.29,24.54,24.54,0,0,0-6.5-12.08q-5-5.18-13.84-8.14T1968.47,138h-19.23q-9.37,0-12.88,14.29-13.5,54.24-22.7,91t-15.37,60.63q-6.18,23.93-9.32,37.47t-4.43,20.95a79.58,79.58,0,0,0-1.3,20,26.54,26.54,0,0,0,5.32,14.54q4.64,5.91,13.67,9.12t24.34,3.2h17.74a14.39,14.39,0,0,0,7.83-2.46,10.45,10.45,0,0,0,4.76-7.4q.78-4.43,4.29-18.73t8.25-32.78q4.72-18.5,10-38.45t9-35.74q8.8-36,21.11-54t26.09-18q8.86,0,10.62,6.9t-.17,17.75q-1,5.91-2.5,11.34T2041,249.37c-.23,1.31.41,2.38,1.9,3.2a21.27,21.27,0,0,0,5.57,2,47,47,0,0,0,7,1q3.66.25,6.62.25a58.64,58.64,0,0,0,24.33-5.18Z" transform="translate(-204.24 -11.58)"/></g></svg>